<?xml version="1.0" encoding="utf-8"?>
<!-- Generator: Adobe Illustrator 18.0.0, SVG Export Plug-In . SVG Version: 6.00 Build 0)  -->
<!DOCTYPE svg PUBLIC "-//W3C//DTD SVG 1.1//EN" "http://www.w3.org/Graphics/SVG/1.1/DTD/svg11.dtd">
<svg version="1.1" id="Mode_Isolation" xmlns="http://www.w3.org/2000/svg" xmlns:xlink="http://www.w3.org/1999/xlink" x="0px"
	 y="0px" viewBox="0 0 36 38" enable-background="new 0 0 36 38" xml:space="preserve">
<g>
	<path fill="#FFFFFF" d="M25.6,38H10.4c-1,0-1.9-0.9-1.9-1.9s0.9-1.9,1.9-1.9h15.2c1,0,1.9,0.9,1.9,1.9C27.5,37.1,26.7,38,25.6,38z"
		/>
</g>
<g>
	<path fill="#FFFFFF" d="M29.4,30.4H6.6c-1,0-1.9-0.9-1.9-1.9s0.9-1.9,1.9-1.9h22.8c1,0,1.9,0.9,1.9,1.9S30.5,30.4,29.4,30.4z"/>
</g>
<g>
	<path fill="#FFFFFF" d="M18,11.4c6.7,0,12.2,5,13.1,11.4h-3.8c-0.9-4.3-4.7-7.6-9.3-7.6s-8.4,3.3-9.3,7.6H4.9
		C5.8,16.4,11.3,11.4,18,11.4z"/>
</g>
<g>
	<path fill="#FFFFFF" d="M16.1,5.7V1.9C16.1,0.9,17,0,18,0c1,0,1.9,0.9,1.9,1.9v3.8c0,1-0.9,1.9-1.9,1.9C17,7.6,16.1,6.7,16.1,5.7z"
		/>
</g>
<g>
	<path fill="#FFFFFF" d="M30.1,9.9l2.7-2.7c0.7-0.7,1.9-0.7,2.7,0s0.7,1.9,0,2.7l-2.7,2.7c-0.7,0.7-1.9,0.7-2.7,0
		C29.4,11.9,29.4,10.7,30.1,9.9z"/>
</g>
<g>
	<path fill="#FFFFFF" d="M5.9,12.6c-0.7,0.7-1.9,0.7-2.7,0L0.6,9.9c-0.7-0.7-0.7-1.9,0-2.7s1.9-0.7,2.7,0l2.7,2.7
		C6.7,10.7,6.7,11.9,5.9,12.6z"/>
</g>
</svg>
