<?xml version="1.0" encoding="utf-8"?>
<!-- Generator: Adobe Illustrator 18.0.0, SVG Export Plug-In . SVG Version: 6.00 Build 0)  -->
<!DOCTYPE svg PUBLIC "-//W3C//DTD SVG 1.1//EN" "http://www.w3.org/Graphics/SVG/1.1/DTD/svg11.dtd">
<svg version="1.1" id="Calque_1" xmlns="http://www.w3.org/2000/svg" xmlns:xlink="http://www.w3.org/1999/xlink" x="0px" y="0px"
	 viewBox="0 0 200.9 200" enable-background="new 0 0 200.9 200" xml:space="preserve">
<g id="t5DF9K_1_">
	<g>
		<path fill="#FFFFFF" d="M200,65c0,23.3,0,46.7,0,70c-0.3,3.3-0.9,6.5-1,9.8c-0.8,26.5-16.7,46.3-42.5,52.3c-7,1.6-14.3,2-21.5,2.9
			c-23.3,0-46.7,0-70,0c-5.9-0.7-11.8-1.2-17.7-2C25.2,195.2,7.6,179.3,3,157.5c-1.6-7.4-2.1-15-3-22.5c0-23.3,0-46.7,0-70
			c0.7-5.9,1.1-11.8,2-17.7c3.3-23,18.4-39.5,41-44.4C50.2,1.4,57.6,1,65,0c23.3,0,46.7,0,70,0c5.9,0.7,11.8,1.1,17.7,2
			c22.7,3.3,39.3,18.2,44.2,40.5C198.6,49.9,199,57.5,200,65z M100.2,19c-15.3,0-30.6-0.5-45.9,0.1c-20.4,0.8-34.8,14.8-35.2,35.4
			c-0.6,30.4-0.6,60.9,0,91.3c0.4,20.1,15,34.7,34.9,35.1c30.4,0.6,60.9,0.6,91.3,0c20.6-0.4,35.1-14.9,35.5-35.6
			c0.6-30.3,0.6-60.6,0-90.8c-0.4-20.3-14.9-34.6-35.2-35.3C130.5,18.5,115.4,19,100.2,19z"/>
		<path fill="#FFFFFF" d="M48.9,100c-0.8-27.8,23.3-51.6,51.2-51.2c28.5,0.4,50.9,22.6,50.9,51.1c0,28.7-22.5,51.2-51.3,51.1
			C71.3,151,48.9,128.5,48.9,100z M133.2,99.8c-0.1-18.6-14.7-33.2-33.3-33.1c-18.6,0.1-33.2,14.6-33.3,33.2
			c-0.1,18.8,14.7,33.5,33.6,33.3C118.9,133.1,133.3,118.5,133.2,99.8z"/>
		<path fill="#FFFFFF" d="M165.1,46.9c-0.1,6.6-5.2,11.5-11.8,11.4c-6.7-0.1-12.1-5.5-11.8-12.1c0.2-6.6,5.6-11.5,12.5-11.3
			C160.6,35.1,165.2,40.1,165.1,46.9z"/>
	</g>
</g>
</svg>
