<?xml version="1.0" encoding="utf-8"?>
<!-- Generator: Adobe Illustrator 18.0.0, SVG Export Plug-In . SVG Version: 6.00 Build 0)  -->
<!DOCTYPE svg PUBLIC "-//W3C//DTD SVG 1.1//EN" "http://www.w3.org/Graphics/SVG/1.1/DTD/svg11.dtd">
<svg version="1.1" id="Calque_1" xmlns="http://www.w3.org/2000/svg" xmlns:xlink="http://www.w3.org/1999/xlink" x="0px" y="0px"
	 viewBox="0 0 12.4 16" enable-background="new 0 0 12.4 16" xml:space="preserve">
<g>
	<defs>
		<rect id="SVGID_1_" y="0" width="12.4" height="16"/>
	</defs>
	<clipPath id="SVGID_2_">
		<use xlink:href="#SVGID_1_"  overflow="visible"/>
	</clipPath>
	<path clip-path="url(#SVGID_2_)" fill="#FFFFFF" d="M7.4,11.6c-1,0-1.9-0.5-2.2-1.1c0,0-0.5,2.1-0.6,2.5c-0.4,1.4-1.6,2.9-1.7,3
		C2.8,16,2.7,16,2.7,15.9c0-0.2-0.3-2,0-3.5c0.2-0.7,1.2-5,1.2-5S3.6,6.8,3.6,5.9c0-1.4,0.8-2.4,1.8-2.4c0.8,0,1.2,0.6,1.2,1.4
		c0,0.8-0.5,2.1-0.8,3.3C5.5,9.2,6.3,10,7.2,10c1.7,0,2.9-2.2,2.9-4.9c0-2-1.4-3.5-3.8-3.5C3.5,1.6,1.8,3.6,1.8,6
		c0,0.8,0.2,1.4,0.6,1.8C2.6,8,2.6,8.1,2.5,8.3c0,0.2-0.1,0.6-0.2,0.7C2.3,9.3,2.1,9.3,1.9,9.3C0.6,8.7,0,7.3,0,5.7
		C0,3.1,2.2,0,6.6,0c3.5,0,5.8,2.5,5.8,5.3C12.4,8.9,10.4,11.6,7.4,11.6"/>
</g>
</svg>
